<svg width="801" height="838" viewBox="0 0 801 838" fill="none" xmlns="http://www.w3.org/2000/svg">
<g filter="url(#filter0_dddddd_37_60)">
<rect x="309" y="209" width="182.667" height="220" rx="12" fill="white"/>
<path d="M330.233 246V235.818H333.673C334.469 235.818 335.122 235.954 335.632 236.226C336.143 236.494 336.52 236.864 336.766 237.335C337.011 237.805 337.134 238.34 337.134 238.94C337.134 239.54 337.011 240.072 336.766 240.536C336.52 241 336.144 241.365 335.637 241.63C335.13 241.892 334.482 242.023 333.693 242.023H330.909V240.909H333.653C334.197 240.909 334.634 240.83 334.966 240.67C335.301 240.511 335.543 240.286 335.692 239.994C335.844 239.699 335.92 239.348 335.92 238.94C335.92 238.533 335.844 238.176 335.692 237.871C335.539 237.567 335.296 237.331 334.961 237.165C334.626 236.996 334.184 236.912 333.634 236.912H331.466V246H330.233ZM335.026 241.426L337.531 246H336.099L333.634 241.426H335.026ZM342.149 246.159C341.413 246.159 340.778 245.997 340.244 245.672C339.714 245.344 339.305 244.886 339.017 244.3C338.731 243.71 338.589 243.024 338.589 242.241C338.589 241.459 338.731 240.77 339.017 240.173C339.305 239.573 339.706 239.106 340.22 238.771C340.737 238.433 341.34 238.264 342.029 238.264C342.427 238.264 342.82 238.33 343.208 238.463C343.595 238.596 343.948 238.811 344.267 239.109C344.585 239.404 344.838 239.795 345.027 240.283C345.216 240.77 345.311 241.37 345.311 242.082V242.58H339.424V241.565H344.117C344.117 241.134 344.031 240.75 343.859 240.412C343.69 240.074 343.448 239.807 343.133 239.612C342.821 239.416 342.454 239.318 342.029 239.318C341.562 239.318 341.158 239.434 340.816 239.666C340.478 239.895 340.218 240.193 340.036 240.561C339.853 240.929 339.762 241.323 339.762 241.744V242.42C339.762 242.997 339.862 243.486 340.061 243.887C340.263 244.285 340.543 244.588 340.901 244.797C341.259 245.002 341.675 245.105 342.149 245.105C342.457 245.105 342.735 245.062 342.984 244.976C343.236 244.886 343.453 244.754 343.635 244.578C343.817 244.399 343.958 244.177 344.058 243.912L345.191 244.23C345.072 244.615 344.871 244.953 344.59 245.244C344.308 245.533 343.96 245.758 343.546 245.92C343.131 246.08 342.666 246.159 342.149 246.159ZM353.107 238.364L350.283 246H349.09L346.266 238.364H347.539L349.647 244.449H349.727L351.835 238.364H353.107ZM357.584 246.159C356.848 246.159 356.214 245.997 355.68 245.672C355.15 245.344 354.74 244.886 354.452 244.3C354.167 243.71 354.025 243.024 354.025 242.241C354.025 241.459 354.167 240.77 354.452 240.173C354.74 239.573 355.141 239.106 355.655 238.771C356.172 238.433 356.775 238.264 357.465 238.264C357.863 238.264 358.255 238.33 358.643 238.463C359.031 238.596 359.384 238.811 359.702 239.109C360.02 239.404 360.274 239.795 360.463 240.283C360.652 240.77 360.746 241.37 360.746 242.082V242.58H354.86V241.565H359.553C359.553 241.134 359.467 240.75 359.294 240.412C359.125 240.074 358.883 239.807 358.569 239.612C358.257 239.416 357.889 239.318 357.465 239.318C356.998 239.318 356.593 239.434 356.252 239.666C355.914 239.895 355.654 240.193 355.471 240.561C355.289 240.929 355.198 241.323 355.198 241.744V242.42C355.198 242.997 355.297 243.486 355.496 243.887C355.698 244.285 355.978 244.588 356.336 244.797C356.694 245.002 357.11 245.105 357.584 245.105C357.892 245.105 358.171 245.062 358.419 244.976C358.671 244.886 358.888 244.754 359.071 244.578C359.253 244.399 359.394 244.177 359.493 243.912L360.627 244.23C360.507 244.615 360.307 244.953 360.025 245.244C359.743 245.533 359.395 245.758 358.981 245.92C358.567 246.08 358.101 246.159 357.584 246.159ZM363.704 241.406V246H362.531V238.364H363.664V239.557H363.764C363.943 239.169 364.215 238.857 364.579 238.622C364.944 238.384 365.414 238.264 365.991 238.264C366.508 238.264 366.961 238.37 367.348 238.582C367.736 238.791 368.038 239.109 368.253 239.537C368.469 239.961 368.576 240.498 368.576 241.148V246H367.403V241.227C367.403 240.627 367.247 240.16 366.936 239.825C366.624 239.487 366.197 239.318 365.653 239.318C365.279 239.318 364.944 239.399 364.649 239.562C364.357 239.724 364.127 239.961 363.958 240.273C363.789 240.584 363.704 240.962 363.704 241.406ZM375.533 242.878V238.364H376.706V246H375.533V244.707H375.453C375.274 245.095 374.996 245.425 374.618 245.697C374.24 245.965 373.763 246.099 373.186 246.099C372.709 246.099 372.285 245.995 371.914 245.786C371.542 245.574 371.251 245.256 371.039 244.832C370.826 244.404 370.72 243.866 370.72 243.216V238.364H371.894V243.136C371.894 243.693 372.049 244.137 372.361 244.469C372.676 244.8 373.077 244.966 373.564 244.966C373.856 244.966 374.152 244.891 374.454 244.742C374.759 244.593 375.014 244.364 375.22 244.056C375.428 243.748 375.533 243.355 375.533 242.878ZM382.057 246.159C381.321 246.159 380.686 245.997 380.153 245.672C379.622 245.344 379.213 244.886 378.925 244.3C378.64 243.71 378.497 243.024 378.497 242.241C378.497 241.459 378.64 240.77 378.925 240.173C379.213 239.573 379.614 239.106 380.128 238.771C380.645 238.433 381.248 238.264 381.938 238.264C382.335 238.264 382.728 238.33 383.116 238.463C383.504 238.596 383.857 238.811 384.175 239.109C384.493 239.404 384.746 239.795 384.935 240.283C385.124 240.77 385.219 241.37 385.219 242.082V242.58H379.332V241.565H384.026C384.026 241.134 383.939 240.75 383.767 240.412C383.598 240.074 383.356 239.807 383.041 239.612C382.73 239.416 382.362 239.318 381.938 239.318C381.47 239.318 381.066 239.434 380.724 239.666C380.386 239.895 380.126 240.193 379.944 240.561C379.762 240.929 379.67 241.323 379.67 241.744V242.42C379.67 242.997 379.77 243.486 379.969 243.887C380.171 244.285 380.451 244.588 380.809 244.797C381.167 245.002 381.583 245.105 382.057 245.105C382.365 245.105 382.643 245.062 382.892 244.976C383.144 244.886 383.361 244.754 383.543 244.578C383.726 244.399 383.866 244.177 383.966 243.912L385.099 244.23C384.98 244.615 384.78 244.953 384.498 245.244C384.216 245.533 383.868 245.758 383.454 245.92C383.04 246.08 382.574 246.159 382.057 246.159Z" fill="#2E2E3A"/>
<path d="M334.98 280.818V262.636H336.145V280.818H334.98ZM338.339 268.453C338.273 267.833 337.994 267.35 337.501 267.004C337.014 266.659 336.379 266.486 335.598 266.486C335.049 266.486 334.578 266.569 334.185 266.734C333.792 266.9 333.491 267.125 333.283 267.409C333.074 267.693 332.968 268.018 332.963 268.382C332.963 268.685 333.032 268.948 333.169 269.17C333.311 269.393 333.503 269.582 333.744 269.739C333.986 269.89 334.253 270.018 334.547 270.122C334.84 270.226 335.136 270.314 335.435 270.385L336.798 270.726C337.348 270.854 337.875 271.027 338.382 271.244C338.893 271.462 339.35 271.737 339.753 272.068C340.16 272.4 340.482 272.8 340.719 273.268C340.955 273.737 341.074 274.286 341.074 274.916C341.074 275.768 340.856 276.519 340.42 277.168C339.985 277.812 339.355 278.316 338.531 278.68C337.712 279.04 336.72 279.22 335.555 279.22C334.424 279.22 333.441 279.045 332.608 278.695C331.779 278.344 331.131 277.833 330.662 277.161C330.198 276.488 329.947 275.669 329.909 274.703H332.501C332.539 275.21 332.696 275.631 332.97 275.967C333.245 276.304 333.602 276.554 334.043 276.72C334.488 276.886 334.985 276.969 335.534 276.969C336.107 276.969 336.609 276.884 337.04 276.713C337.475 276.538 337.816 276.296 338.062 275.989C338.309 275.676 338.434 275.312 338.439 274.895C338.434 274.516 338.323 274.204 338.105 273.957C337.887 273.706 337.582 273.498 337.189 273.332C336.801 273.162 336.346 273.01 335.825 272.878L334.17 272.452C332.973 272.144 332.026 271.678 331.33 271.053C330.638 270.423 330.293 269.587 330.293 268.545C330.293 267.688 330.525 266.938 330.989 266.294C331.457 265.65 332.094 265.151 332.899 264.795C333.704 264.436 334.616 264.256 335.634 264.256C336.666 264.256 337.57 264.436 338.347 264.795C339.128 265.151 339.741 265.645 340.186 266.28C340.631 266.91 340.861 267.634 340.875 268.453H338.339ZM348.338 279.199C347.391 279.199 346.543 279.021 345.795 278.666C345.047 278.306 344.453 277.814 344.012 277.189C343.577 276.564 343.345 275.849 343.316 275.044H345.873C345.921 275.641 346.179 276.128 346.647 276.507C347.116 276.881 347.68 277.068 348.338 277.068C348.854 277.068 349.313 276.95 349.716 276.713C350.118 276.476 350.435 276.147 350.667 275.726C350.899 275.304 351.013 274.824 351.008 274.284C351.013 273.735 350.897 273.247 350.66 272.821C350.423 272.395 350.099 272.061 349.687 271.82C349.275 271.573 348.802 271.45 348.267 271.45C347.831 271.446 347.403 271.526 346.981 271.692C346.56 271.857 346.226 272.075 345.98 272.345L343.6 271.955L344.36 264.455H352.798V266.656H346.541L346.122 270.513H346.207C346.477 270.196 346.858 269.933 347.35 269.724C347.843 269.511 348.383 269.405 348.97 269.405C349.85 269.405 350.636 269.613 351.328 270.03C352.019 270.442 352.564 271.01 352.961 271.734C353.359 272.459 353.558 273.287 353.558 274.22C353.558 275.181 353.335 276.038 352.89 276.791C352.45 277.539 351.837 278.129 351.051 278.56C350.27 278.986 349.365 279.199 348.338 279.199ZM355.674 276.301V274.206L361.846 264.455H363.593V267.438H362.528L358.373 274.021V274.135H366.988V276.301H355.674ZM362.613 279V275.662L362.642 274.724V264.455H365.127V279H362.613ZM374.634 279.277C373.464 279.277 372.461 278.981 371.623 278.389C370.789 277.793 370.148 276.933 369.698 275.811C369.253 274.684 369.03 273.328 369.03 271.741C369.035 270.155 369.26 268.806 369.705 267.693C370.155 266.576 370.796 265.723 371.63 265.136C372.468 264.549 373.469 264.256 374.634 264.256C375.799 264.256 376.8 264.549 377.638 265.136C378.476 265.723 379.118 266.576 379.563 267.693C380.013 268.811 380.238 270.16 380.238 271.741C380.238 273.332 380.013 274.691 379.563 275.818C379.118 276.94 378.476 277.797 377.638 278.389C376.805 278.981 375.803 279.277 374.634 279.277ZM374.634 277.054C375.543 277.054 376.26 276.607 376.786 275.712C377.316 274.812 377.581 273.489 377.581 271.741C377.581 270.586 377.461 269.616 377.219 268.83C376.978 268.044 376.637 267.452 376.196 267.054C375.756 266.652 375.235 266.45 374.634 266.45C373.73 266.45 373.015 266.9 372.489 267.8C371.963 268.695 371.698 270.009 371.694 271.741C371.689 272.902 371.805 273.877 372.042 274.668C372.283 275.458 372.624 276.055 373.064 276.457C373.505 276.855 374.028 277.054 374.634 277.054Z" fill="#2E2E3A"/>
<path d="M336.423 292.818V300.281L339.241 297.452L340.276 298.476L335.682 303.06L331.098 298.476L332.112 297.452L334.941 300.281V292.818H336.423ZM343.262 303V301.668L346.797 298.202C347.135 297.861 347.417 297.558 347.642 297.293C347.868 297.027 348.037 296.771 348.149 296.522C348.262 296.273 348.318 296.008 348.318 295.727C348.318 295.405 348.245 295.13 348.1 294.901C347.954 294.669 347.753 294.49 347.498 294.364C347.243 294.238 346.953 294.175 346.628 294.175C346.293 294.175 346 294.245 345.748 294.384C345.496 294.52 345.301 294.714 345.161 294.966C345.026 295.218 344.958 295.518 344.958 295.866H343.203C343.203 295.219 343.35 294.658 343.645 294.18C343.94 293.703 344.346 293.334 344.863 293.072C345.383 292.81 345.98 292.679 346.653 292.679C347.336 292.679 347.936 292.807 348.453 293.062C348.97 293.317 349.371 293.667 349.656 294.111C349.944 294.555 350.088 295.062 350.088 295.632C350.088 296.013 350.015 296.388 349.869 296.756C349.724 297.124 349.467 297.531 349.099 297.979C348.734 298.426 348.222 298.968 347.563 299.604L345.808 301.389V301.459H350.242V303H343.262ZM353.086 303.109C352.785 303.109 352.526 303.003 352.311 302.791C352.095 302.579 351.989 302.321 351.992 302.016C351.989 301.717 352.095 301.462 352.311 301.25C352.526 301.038 352.785 300.932 353.086 300.932C353.378 300.932 353.631 301.038 353.847 301.25C354.066 301.462 354.177 301.717 354.18 302.016C354.177 302.218 354.124 302.402 354.021 302.567C353.921 302.733 353.789 302.866 353.623 302.965C353.461 303.061 353.282 303.109 353.086 303.109ZM359.435 303.139C358.772 303.139 358.179 303.015 357.655 302.766C357.131 302.514 356.715 302.17 356.407 301.732C356.102 301.295 355.94 300.794 355.92 300.231H357.71C357.743 300.648 357.923 300.99 358.252 301.255C358.58 301.517 358.974 301.648 359.435 301.648C359.796 301.648 360.118 301.565 360.399 301.399C360.681 301.233 360.903 301.003 361.066 300.708C361.228 300.413 361.307 300.077 361.304 299.699C361.307 299.314 361.226 298.973 361.061 298.675C360.895 298.376 360.668 298.143 360.379 297.974C360.091 297.801 359.76 297.715 359.385 297.715C359.08 297.712 358.78 297.768 358.485 297.884C358.19 298 357.957 298.153 357.784 298.342L356.119 298.068L356.651 292.818H362.557V294.359H358.177L357.884 297.059H357.943C358.132 296.837 358.399 296.653 358.744 296.507C359.088 296.358 359.466 296.283 359.877 296.283C360.494 296.283 361.044 296.429 361.528 296.721C362.012 297.009 362.393 297.407 362.671 297.914C362.95 298.421 363.089 299.001 363.089 299.654C363.089 300.327 362.933 300.927 362.622 301.454C362.313 301.978 361.884 302.39 361.334 302.692C360.787 302.99 360.154 303.139 359.435 303.139ZM370.198 301.091V300.554C370.198 300.16 370.281 299.797 370.447 299.465C370.616 299.134 370.861 298.867 371.183 298.665C371.504 298.463 371.894 298.362 372.351 298.362C372.822 298.362 373.216 298.463 373.534 298.665C373.852 298.864 374.093 299.129 374.255 299.46C374.421 299.792 374.504 300.156 374.504 300.554V301.091C374.504 301.485 374.421 301.848 374.255 302.18C374.089 302.511 373.846 302.778 373.524 302.98C373.206 303.182 372.815 303.283 372.351 303.283C371.887 303.283 371.494 303.182 371.173 302.98C370.851 302.778 370.608 302.511 370.442 302.18C370.28 301.848 370.198 301.485 370.198 301.091ZM371.496 300.554V301.091C371.496 301.353 371.559 301.593 371.685 301.812C371.811 302.031 372.033 302.14 372.351 302.14C372.673 302.14 372.893 302.032 373.012 301.817C373.135 301.598 373.196 301.356 373.196 301.091V300.554C373.196 300.289 373.138 300.047 373.022 299.828C372.906 299.606 372.682 299.495 372.351 299.495C372.039 299.495 371.819 299.606 371.69 299.828C371.561 300.047 371.496 300.289 371.496 300.554ZM365.023 295.264V294.727C365.023 294.33 365.107 293.965 365.276 293.634C365.445 293.302 365.691 293.037 366.012 292.838C366.334 292.636 366.723 292.535 367.181 292.535C367.648 292.535 368.041 292.636 368.359 292.838C368.68 293.037 368.922 293.302 369.085 293.634C369.247 293.965 369.328 294.33 369.328 294.727V295.264C369.328 295.662 369.245 296.027 369.08 296.358C368.917 296.686 368.675 296.95 368.354 297.148C368.032 297.347 367.641 297.447 367.181 297.447C366.713 297.447 366.319 297.347 365.997 297.148C365.679 296.95 365.437 296.684 365.271 296.353C365.106 296.022 365.023 295.659 365.023 295.264ZM366.33 294.727V295.264C366.33 295.529 366.392 295.771 366.514 295.99C366.64 296.205 366.862 296.313 367.181 296.313C367.499 296.313 367.718 296.205 367.837 295.99C367.959 295.771 368.021 295.529 368.021 295.264V294.727C368.021 294.462 367.963 294.22 367.847 294.001C367.731 293.779 367.509 293.668 367.181 293.668C366.866 293.668 366.645 293.779 366.519 294.001C366.393 294.223 366.33 294.465 366.33 294.727ZM365.59 303L372.59 292.818H373.833L366.833 303H365.59Z" fill="#FD4438"/>
<rect x="329" y="345" width="6.02817" height="60" rx="3.01408" fill="white"/>
<rect x="346.08" y="345" width="6.02817" height="60" rx="3.01408" fill="white"/>
<rect x="363.16" y="345" width="6.02817" height="60" rx="3.01408" fill="white"/>
<rect x="380.239" y="345" width="6.02817" height="60" rx="3.01408" fill="white"/>
<rect x="397.319" y="345" width="6.02817" height="60" rx="3.01408" fill="white"/>
<rect x="414.399" y="345" width="6.02817" height="60" rx="3.01408" fill="white"/>
<rect x="431.479" y="345" width="6.02817" height="60" rx="3.01408" fill="white"/>
<rect x="448.559" y="345" width="6.02817" height="60" rx="3.01408" fill="white"/>
<rect x="465.639" y="345" width="6.02817" height="60" rx="3.01408" fill="white"/>
<g filter="url(#filter1_dddddd_37_60)">
<rect x="329" y="374" width="6.02817" height="31" rx="3.01408" fill="#3DD598"/>
</g>
<g filter="url(#filter2_dddddd_37_60)">
<rect x="346.08" y="359" width="6.02817" height="46" rx="3.01408" fill="#3DD598"/>
</g>
<g filter="url(#filter3_dddddd_37_60)">
<rect x="363.16" y="374" width="6.02817" height="31" rx="3.01408" fill="#3DD598"/>
</g>
<g filter="url(#filter4_dddddd_37_60)">
<rect x="380.239" y="374" width="6.02817" height="31" rx="3.01408" fill="#3DD598"/>
</g>
<g filter="url(#filter5_dddddd_37_60)">
<rect x="397.319" y="359" width="6.02817" height="46" rx="3.01408" fill="#3DD598"/>
</g>
<g filter="url(#filter6_dddddd_37_60)">
<rect x="414.399" y="352" width="6.02817" height="53" rx="3.01408" fill="#3DD598"/>
</g>
<g filter="url(#filter7_dddddd_37_60)">
<rect x="431.479" y="359" width="6.02817" height="46" rx="3.01408" fill="#3DD598"/>
</g>
<g filter="url(#filter8_dddddd_37_60)">
<rect x="448.559" y="374" width="6.02817" height="31" rx="3.01408" fill="#3DD598"/>
</g>
<g filter="url(#filter9_dddddd_37_60)">
<rect x="465.639" y="374" width="6.02817" height="31" rx="3.01408" fill="#3DD598"/>
</g>
</g>
<defs>
<filter id="filter0_dddddd_37_60" x="0" y="0" width="800.667" height="838" filterUnits="userSpaceOnUse" color-interpolation-filters="sRGB">
<feFlood flood-opacity="0" result="BackgroundImageFix"/>
<feColorMatrix in="SourceAlpha" type="matrix" values="0 0 0 0 0 0 0 0 0 0 0 0 0 0 0 0 0 0 127 0" result="hardAlpha"/>
<feOffset dy="2.76726"/>
<feGaussianBlur stdDeviation="4.27541"/>
<feColorMatrix type="matrix" values="0 0 0 0 0.823529 0 0 0 0 0.815686 0 0 0 0 0.882353 0 0 0 0.0674749 0"/>
<feBlend mode="normal" in2="BackgroundImageFix" result="effect1_dropShadow_37_60"/>
<feColorMatrix in="SourceAlpha" type="matrix" values="0 0 0 0 0 0 0 0 0 0 0 0 0 0 0 0 0 0 127 0" result="hardAlpha"/>
<feOffset dy="6.6501"/>
<feGaussianBlur stdDeviation="10.2744"/>
<feColorMatrix type="matrix" values="0 0 0 0 0.823529 0 0 0 0 0.815686 0 0 0 0 0.882353 0 0 0 0.0969343 0"/>
<feBlend mode="normal" in2="effect1_dropShadow_37_60" result="effect2_dropShadow_37_60"/>
<feColorMatrix in="SourceAlpha" type="matrix" values="0 0 0 0 0 0 0 0 0 0 0 0 0 0 0 0 0 0 127 0" result="hardAlpha"/>
<feOffset dy="12.5216"/>
<feGaussianBlur stdDeviation="19.3458"/>
<feColorMatrix type="matrix" values="0 0 0 0 0.823529 0 0 0 0 0.815686 0 0 0 0 0.882353 0 0 0 0.12 0"/>
<feBlend mode="normal" in2="effect2_dropShadow_37_60" result="effect3_dropShadow_37_60"/>
<feColorMatrix in="SourceAlpha" type="matrix" values="0 0 0 0 0 0 0 0 0 0 0 0 0 0 0 0 0 0 127 0" result="hardAlpha"/>
<feOffset dy="22.3363"/>
<feGaussianBlur stdDeviation="34.5096"/>
<feColorMatrix type="matrix" values="0 0 0 0 0.823529 0 0 0 0 0.815686 0 0 0 0 0.882353 0 0 0 0.143066 0"/>
<feBlend mode="normal" in2="effect3_dropShadow_37_60" result="effect4_dropShadow_37_60"/>
<feColorMatrix in="SourceAlpha" type="matrix" values="0 0 0 0 0 0 0 0 0 0 0 0 0 0 0 0 0 0 127 0" result="hardAlpha"/>
<feOffset dy="41.7776"/>
<feGaussianBlur stdDeviation="64.5464"/>
<feColorMatrix type="matrix" values="0 0 0 0 0.823529 0 0 0 0 0.815686 0 0 0 0 0.882353 0 0 0 0.172525 0"/>
<feBlend mode="normal" in2="effect4_dropShadow_37_60" result="effect5_dropShadow_37_60"/>
<feColorMatrix in="SourceAlpha" type="matrix" values="0 0 0 0 0 0 0 0 0 0 0 0 0 0 0 0 0 0 127 0" result="hardAlpha"/>
<feOffset dy="100"/>
<feGaussianBlur stdDeviation="154.5"/>
<feColorMatrix type="matrix" values="0 0 0 0 0.823529 0 0 0 0 0.815686 0 0 0 0 0.882353 0 0 0 0.24 0"/>
<feBlend mode="normal" in2="effect5_dropShadow_37_60" result="effect6_dropShadow_37_60"/>
<feBlend mode="normal" in="SourceGraphic" in2="effect6_dropShadow_37_60" result="shape"/>
</filter>
<filter id="filter1_dddddd_37_60" x="249" y="374" width="166.028" height="211" filterUnits="userSpaceOnUse" color-interpolation-filters="sRGB">
<feFlood flood-opacity="0" result="BackgroundImageFix"/>
<feColorMatrix in="SourceAlpha" type="matrix" values="0 0 0 0 0 0 0 0 0 0 0 0 0 0 0 0 0 0 127 0" result="hardAlpha"/>
<feOffset dy="2.76726"/>
<feGaussianBlur stdDeviation="1.1069"/>
<feColorMatrix type="matrix" values="0 0 0 0 0.0156863 0 0 0 0 0.6 0 0 0 0 0.027451 0 0 0 0.0674749 0"/>
<feBlend mode="normal" in2="BackgroundImageFix" result="effect1_dropShadow_37_60"/>
<feColorMatrix in="SourceAlpha" type="matrix" values="0 0 0 0 0 0 0 0 0 0 0 0 0 0 0 0 0 0 127 0" result="hardAlpha"/>
<feOffset dy="6.6501"/>
<feGaussianBlur stdDeviation="2.66004"/>
<feColorMatrix type="matrix" values="0 0 0 0 0.0156863 0 0 0 0 0.6 0 0 0 0 0.027451 0 0 0 0.0969343 0"/>
<feBlend mode="normal" in2="effect1_dropShadow_37_60" result="effect2_dropShadow_37_60"/>
<feColorMatrix in="SourceAlpha" type="matrix" values="0 0 0 0 0 0 0 0 0 0 0 0 0 0 0 0 0 0 127 0" result="hardAlpha"/>
<feOffset dy="12.5216"/>
<feGaussianBlur stdDeviation="5.00862"/>
<feColorMatrix type="matrix" values="0 0 0 0 0.0156863 0 0 0 0 0.6 0 0 0 0 0.027451 0 0 0 0.12 0"/>
<feBlend mode="normal" in2="effect2_dropShadow_37_60" result="effect3_dropShadow_37_60"/>
<feColorMatrix in="SourceAlpha" type="matrix" values="0 0 0 0 0 0 0 0 0 0 0 0 0 0 0 0 0 0 127 0" result="hardAlpha"/>
<feOffset dy="22.3363"/>
<feGaussianBlur stdDeviation="8.93452"/>
<feColorMatrix type="matrix" values="0 0 0 0 0.0156863 0 0 0 0 0.6 0 0 0 0 0.027451 0 0 0 0.143066 0"/>
<feBlend mode="normal" in2="effect3_dropShadow_37_60" result="effect4_dropShadow_37_60"/>
<feColorMatrix in="SourceAlpha" type="matrix" values="0 0 0 0 0 0 0 0 0 0 0 0 0 0 0 0 0 0 127 0" result="hardAlpha"/>
<feOffset dy="41.7776"/>
<feGaussianBlur stdDeviation="16.711"/>
<feColorMatrix type="matrix" values="0 0 0 0 0.0156863 0 0 0 0 0.6 0 0 0 0 0.027451 0 0 0 0.172525 0"/>
<feBlend mode="normal" in2="effect4_dropShadow_37_60" result="effect5_dropShadow_37_60"/>
<feColorMatrix in="SourceAlpha" type="matrix" values="0 0 0 0 0 0 0 0 0 0 0 0 0 0 0 0 0 0 127 0" result="hardAlpha"/>
<feOffset dy="100"/>
<feGaussianBlur stdDeviation="40"/>
<feColorMatrix type="matrix" values="0 0 0 0 0.0156863 0 0 0 0 0.6 0 0 0 0 0.027451 0 0 0 0.24 0"/>
<feBlend mode="normal" in2="effect5_dropShadow_37_60" result="effect6_dropShadow_37_60"/>
<feBlend mode="normal" in="SourceGraphic" in2="effect6_dropShadow_37_60" result="shape"/>
</filter>
<filter id="filter2_dddddd_37_60" x="266.08" y="359" width="166.028" height="226" filterUnits="userSpaceOnUse" color-interpolation-filters="sRGB">
<feFlood flood-opacity="0" result="BackgroundImageFix"/>
<feColorMatrix in="SourceAlpha" type="matrix" values="0 0 0 0 0 0 0 0 0 0 0 0 0 0 0 0 0 0 127 0" result="hardAlpha"/>
<feOffset dy="2.76726"/>
<feGaussianBlur stdDeviation="1.1069"/>
<feColorMatrix type="matrix" values="0 0 0 0 0.0156863 0 0 0 0 0.6 0 0 0 0 0.027451 0 0 0 0.0674749 0"/>
<feBlend mode="normal" in2="BackgroundImageFix" result="effect1_dropShadow_37_60"/>
<feColorMatrix in="SourceAlpha" type="matrix" values="0 0 0 0 0 0 0 0 0 0 0 0 0 0 0 0 0 0 127 0" result="hardAlpha"/>
<feOffset dy="6.6501"/>
<feGaussianBlur stdDeviation="2.66004"/>
<feColorMatrix type="matrix" values="0 0 0 0 0.0156863 0 0 0 0 0.6 0 0 0 0 0.027451 0 0 0 0.0969343 0"/>
<feBlend mode="normal" in2="effect1_dropShadow_37_60" result="effect2_dropShadow_37_60"/>
<feColorMatrix in="SourceAlpha" type="matrix" values="0 0 0 0 0 0 0 0 0 0 0 0 0 0 0 0 0 0 127 0" result="hardAlpha"/>
<feOffset dy="12.5216"/>
<feGaussianBlur stdDeviation="5.00862"/>
<feColorMatrix type="matrix" values="0 0 0 0 0.0156863 0 0 0 0 0.6 0 0 0 0 0.027451 0 0 0 0.12 0"/>
<feBlend mode="normal" in2="effect2_dropShadow_37_60" result="effect3_dropShadow_37_60"/>
<feColorMatrix in="SourceAlpha" type="matrix" values="0 0 0 0 0 0 0 0 0 0 0 0 0 0 0 0 0 0 127 0" result="hardAlpha"/>
<feOffset dy="22.3363"/>
<feGaussianBlur stdDeviation="8.93452"/>
<feColorMatrix type="matrix" values="0 0 0 0 0.0156863 0 0 0 0 0.6 0 0 0 0 0.027451 0 0 0 0.143066 0"/>
<feBlend mode="normal" in2="effect3_dropShadow_37_60" result="effect4_dropShadow_37_60"/>
<feColorMatrix in="SourceAlpha" type="matrix" values="0 0 0 0 0 0 0 0 0 0 0 0 0 0 0 0 0 0 127 0" result="hardAlpha"/>
<feOffset dy="41.7776"/>
<feGaussianBlur stdDeviation="16.711"/>
<feColorMatrix type="matrix" values="0 0 0 0 0.0156863 0 0 0 0 0.6 0 0 0 0 0.027451 0 0 0 0.172525 0"/>
<feBlend mode="normal" in2="effect4_dropShadow_37_60" result="effect5_dropShadow_37_60"/>
<feColorMatrix in="SourceAlpha" type="matrix" values="0 0 0 0 0 0 0 0 0 0 0 0 0 0 0 0 0 0 127 0" result="hardAlpha"/>
<feOffset dy="100"/>
<feGaussianBlur stdDeviation="40"/>
<feColorMatrix type="matrix" values="0 0 0 0 0.0156863 0 0 0 0 0.6 0 0 0 0 0.027451 0 0 0 0.24 0"/>
<feBlend mode="normal" in2="effect5_dropShadow_37_60" result="effect6_dropShadow_37_60"/>
<feBlend mode="normal" in="SourceGraphic" in2="effect6_dropShadow_37_60" result="shape"/>
</filter>
<filter id="filter3_dddddd_37_60" x="283.16" y="374" width="166.028" height="211" filterUnits="userSpaceOnUse" color-interpolation-filters="sRGB">
<feFlood flood-opacity="0" result="BackgroundImageFix"/>
<feColorMatrix in="SourceAlpha" type="matrix" values="0 0 0 0 0 0 0 0 0 0 0 0 0 0 0 0 0 0 127 0" result="hardAlpha"/>
<feOffset dy="2.76726"/>
<feGaussianBlur stdDeviation="1.1069"/>
<feColorMatrix type="matrix" values="0 0 0 0 0.0156863 0 0 0 0 0.6 0 0 0 0 0.027451 0 0 0 0.0674749 0"/>
<feBlend mode="normal" in2="BackgroundImageFix" result="effect1_dropShadow_37_60"/>
<feColorMatrix in="SourceAlpha" type="matrix" values="0 0 0 0 0 0 0 0 0 0 0 0 0 0 0 0 0 0 127 0" result="hardAlpha"/>
<feOffset dy="6.6501"/>
<feGaussianBlur stdDeviation="2.66004"/>
<feColorMatrix type="matrix" values="0 0 0 0 0.0156863 0 0 0 0 0.6 0 0 0 0 0.027451 0 0 0 0.0969343 0"/>
<feBlend mode="normal" in2="effect1_dropShadow_37_60" result="effect2_dropShadow_37_60"/>
<feColorMatrix in="SourceAlpha" type="matrix" values="0 0 0 0 0 0 0 0 0 0 0 0 0 0 0 0 0 0 127 0" result="hardAlpha"/>
<feOffset dy="12.5216"/>
<feGaussianBlur stdDeviation="5.00862"/>
<feColorMatrix type="matrix" values="0 0 0 0 0.0156863 0 0 0 0 0.6 0 0 0 0 0.027451 0 0 0 0.12 0"/>
<feBlend mode="normal" in2="effect2_dropShadow_37_60" result="effect3_dropShadow_37_60"/>
<feColorMatrix in="SourceAlpha" type="matrix" values="0 0 0 0 0 0 0 0 0 0 0 0 0 0 0 0 0 0 127 0" result="hardAlpha"/>
<feOffset dy="22.3363"/>
<feGaussianBlur stdDeviation="8.93452"/>
<feColorMatrix type="matrix" values="0 0 0 0 0.0156863 0 0 0 0 0.6 0 0 0 0 0.027451 0 0 0 0.143066 0"/>
<feBlend mode="normal" in2="effect3_dropShadow_37_60" result="effect4_dropShadow_37_60"/>
<feColorMatrix in="SourceAlpha" type="matrix" values="0 0 0 0 0 0 0 0 0 0 0 0 0 0 0 0 0 0 127 0" result="hardAlpha"/>
<feOffset dy="41.7776"/>
<feGaussianBlur stdDeviation="16.711"/>
<feColorMatrix type="matrix" values="0 0 0 0 0.0156863 0 0 0 0 0.6 0 0 0 0 0.027451 0 0 0 0.172525 0"/>
<feBlend mode="normal" in2="effect4_dropShadow_37_60" result="effect5_dropShadow_37_60"/>
<feColorMatrix in="SourceAlpha" type="matrix" values="0 0 0 0 0 0 0 0 0 0 0 0 0 0 0 0 0 0 127 0" result="hardAlpha"/>
<feOffset dy="100"/>
<feGaussianBlur stdDeviation="40"/>
<feColorMatrix type="matrix" values="0 0 0 0 0.0156863 0 0 0 0 0.6 0 0 0 0 0.027451 0 0 0 0.24 0"/>
<feBlend mode="normal" in2="effect5_dropShadow_37_60" result="effect6_dropShadow_37_60"/>
<feBlend mode="normal" in="SourceGraphic" in2="effect6_dropShadow_37_60" result="shape"/>
</filter>
<filter id="filter4_dddddd_37_60" x="300.239" y="374" width="166.028" height="211" filterUnits="userSpaceOnUse" color-interpolation-filters="sRGB">
<feFlood flood-opacity="0" result="BackgroundImageFix"/>
<feColorMatrix in="SourceAlpha" type="matrix" values="0 0 0 0 0 0 0 0 0 0 0 0 0 0 0 0 0 0 127 0" result="hardAlpha"/>
<feOffset dy="2.76726"/>
<feGaussianBlur stdDeviation="1.1069"/>
<feColorMatrix type="matrix" values="0 0 0 0 0.0156863 0 0 0 0 0.6 0 0 0 0 0.027451 0 0 0 0.0674749 0"/>
<feBlend mode="normal" in2="BackgroundImageFix" result="effect1_dropShadow_37_60"/>
<feColorMatrix in="SourceAlpha" type="matrix" values="0 0 0 0 0 0 0 0 0 0 0 0 0 0 0 0 0 0 127 0" result="hardAlpha"/>
<feOffset dy="6.6501"/>
<feGaussianBlur stdDeviation="2.66004"/>
<feColorMatrix type="matrix" values="0 0 0 0 0.0156863 0 0 0 0 0.6 0 0 0 0 0.027451 0 0 0 0.0969343 0"/>
<feBlend mode="normal" in2="effect1_dropShadow_37_60" result="effect2_dropShadow_37_60"/>
<feColorMatrix in="SourceAlpha" type="matrix" values="0 0 0 0 0 0 0 0 0 0 0 0 0 0 0 0 0 0 127 0" result="hardAlpha"/>
<feOffset dy="12.5216"/>
<feGaussianBlur stdDeviation="5.00862"/>
<feColorMatrix type="matrix" values="0 0 0 0 0.0156863 0 0 0 0 0.6 0 0 0 0 0.027451 0 0 0 0.12 0"/>
<feBlend mode="normal" in2="effect2_dropShadow_37_60" result="effect3_dropShadow_37_60"/>
<feColorMatrix in="SourceAlpha" type="matrix" values="0 0 0 0 0 0 0 0 0 0 0 0 0 0 0 0 0 0 127 0" result="hardAlpha"/>
<feOffset dy="22.3363"/>
<feGaussianBlur stdDeviation="8.93452"/>
<feColorMatrix type="matrix" values="0 0 0 0 0.0156863 0 0 0 0 0.6 0 0 0 0 0.027451 0 0 0 0.143066 0"/>
<feBlend mode="normal" in2="effect3_dropShadow_37_60" result="effect4_dropShadow_37_60"/>
<feColorMatrix in="SourceAlpha" type="matrix" values="0 0 0 0 0 0 0 0 0 0 0 0 0 0 0 0 0 0 127 0" result="hardAlpha"/>
<feOffset dy="41.7776"/>
<feGaussianBlur stdDeviation="16.711"/>
<feColorMatrix type="matrix" values="0 0 0 0 0.0156863 0 0 0 0 0.6 0 0 0 0 0.027451 0 0 0 0.172525 0"/>
<feBlend mode="normal" in2="effect4_dropShadow_37_60" result="effect5_dropShadow_37_60"/>
<feColorMatrix in="SourceAlpha" type="matrix" values="0 0 0 0 0 0 0 0 0 0 0 0 0 0 0 0 0 0 127 0" result="hardAlpha"/>
<feOffset dy="100"/>
<feGaussianBlur stdDeviation="40"/>
<feColorMatrix type="matrix" values="0 0 0 0 0.0156863 0 0 0 0 0.6 0 0 0 0 0.027451 0 0 0 0.24 0"/>
<feBlend mode="normal" in2="effect5_dropShadow_37_60" result="effect6_dropShadow_37_60"/>
<feBlend mode="normal" in="SourceGraphic" in2="effect6_dropShadow_37_60" result="shape"/>
</filter>
<filter id="filter5_dddddd_37_60" x="317.319" y="359" width="166.028" height="226" filterUnits="userSpaceOnUse" color-interpolation-filters="sRGB">
<feFlood flood-opacity="0" result="BackgroundImageFix"/>
<feColorMatrix in="SourceAlpha" type="matrix" values="0 0 0 0 0 0 0 0 0 0 0 0 0 0 0 0 0 0 127 0" result="hardAlpha"/>
<feOffset dy="2.76726"/>
<feGaussianBlur stdDeviation="1.1069"/>
<feColorMatrix type="matrix" values="0 0 0 0 0.0156863 0 0 0 0 0.6 0 0 0 0 0.027451 0 0 0 0.0674749 0"/>
<feBlend mode="normal" in2="BackgroundImageFix" result="effect1_dropShadow_37_60"/>
<feColorMatrix in="SourceAlpha" type="matrix" values="0 0 0 0 0 0 0 0 0 0 0 0 0 0 0 0 0 0 127 0" result="hardAlpha"/>
<feOffset dy="6.6501"/>
<feGaussianBlur stdDeviation="2.66004"/>
<feColorMatrix type="matrix" values="0 0 0 0 0.0156863 0 0 0 0 0.6 0 0 0 0 0.027451 0 0 0 0.0969343 0"/>
<feBlend mode="normal" in2="effect1_dropShadow_37_60" result="effect2_dropShadow_37_60"/>
<feColorMatrix in="SourceAlpha" type="matrix" values="0 0 0 0 0 0 0 0 0 0 0 0 0 0 0 0 0 0 127 0" result="hardAlpha"/>
<feOffset dy="12.5216"/>
<feGaussianBlur stdDeviation="5.00862"/>
<feColorMatrix type="matrix" values="0 0 0 0 0.0156863 0 0 0 0 0.6 0 0 0 0 0.027451 0 0 0 0.12 0"/>
<feBlend mode="normal" in2="effect2_dropShadow_37_60" result="effect3_dropShadow_37_60"/>
<feColorMatrix in="SourceAlpha" type="matrix" values="0 0 0 0 0 0 0 0 0 0 0 0 0 0 0 0 0 0 127 0" result="hardAlpha"/>
<feOffset dy="22.3363"/>
<feGaussianBlur stdDeviation="8.93452"/>
<feColorMatrix type="matrix" values="0 0 0 0 0.0156863 0 0 0 0 0.6 0 0 0 0 0.027451 0 0 0 0.143066 0"/>
<feBlend mode="normal" in2="effect3_dropShadow_37_60" result="effect4_dropShadow_37_60"/>
<feColorMatrix in="SourceAlpha" type="matrix" values="0 0 0 0 0 0 0 0 0 0 0 0 0 0 0 0 0 0 127 0" result="hardAlpha"/>
<feOffset dy="41.7776"/>
<feGaussianBlur stdDeviation="16.711"/>
<feColorMatrix type="matrix" values="0 0 0 0 0.0156863 0 0 0 0 0.6 0 0 0 0 0.027451 0 0 0 0.172525 0"/>
<feBlend mode="normal" in2="effect4_dropShadow_37_60" result="effect5_dropShadow_37_60"/>
<feColorMatrix in="SourceAlpha" type="matrix" values="0 0 0 0 0 0 0 0 0 0 0 0 0 0 0 0 0 0 127 0" result="hardAlpha"/>
<feOffset dy="100"/>
<feGaussianBlur stdDeviation="40"/>
<feColorMatrix type="matrix" values="0 0 0 0 0.0156863 0 0 0 0 0.6 0 0 0 0 0.027451 0 0 0 0.24 0"/>
<feBlend mode="normal" in2="effect5_dropShadow_37_60" result="effect6_dropShadow_37_60"/>
<feBlend mode="normal" in="SourceGraphic" in2="effect6_dropShadow_37_60" result="shape"/>
</filter>
<filter id="filter6_dddddd_37_60" x="334.399" y="352" width="166.028" height="233" filterUnits="userSpaceOnUse" color-interpolation-filters="sRGB">
<feFlood flood-opacity="0" result="BackgroundImageFix"/>
<feColorMatrix in="SourceAlpha" type="matrix" values="0 0 0 0 0 0 0 0 0 0 0 0 0 0 0 0 0 0 127 0" result="hardAlpha"/>
<feOffset dy="2.76726"/>
<feGaussianBlur stdDeviation="1.1069"/>
<feColorMatrix type="matrix" values="0 0 0 0 0.0156863 0 0 0 0 0.6 0 0 0 0 0.027451 0 0 0 0.0674749 0"/>
<feBlend mode="normal" in2="BackgroundImageFix" result="effect1_dropShadow_37_60"/>
<feColorMatrix in="SourceAlpha" type="matrix" values="0 0 0 0 0 0 0 0 0 0 0 0 0 0 0 0 0 0 127 0" result="hardAlpha"/>
<feOffset dy="6.6501"/>
<feGaussianBlur stdDeviation="2.66004"/>
<feColorMatrix type="matrix" values="0 0 0 0 0.0156863 0 0 0 0 0.6 0 0 0 0 0.027451 0 0 0 0.0969343 0"/>
<feBlend mode="normal" in2="effect1_dropShadow_37_60" result="effect2_dropShadow_37_60"/>
<feColorMatrix in="SourceAlpha" type="matrix" values="0 0 0 0 0 0 0 0 0 0 0 0 0 0 0 0 0 0 127 0" result="hardAlpha"/>
<feOffset dy="12.5216"/>
<feGaussianBlur stdDeviation="5.00862"/>
<feColorMatrix type="matrix" values="0 0 0 0 0.0156863 0 0 0 0 0.6 0 0 0 0 0.027451 0 0 0 0.12 0"/>
<feBlend mode="normal" in2="effect2_dropShadow_37_60" result="effect3_dropShadow_37_60"/>
<feColorMatrix in="SourceAlpha" type="matrix" values="0 0 0 0 0 0 0 0 0 0 0 0 0 0 0 0 0 0 127 0" result="hardAlpha"/>
<feOffset dy="22.3363"/>
<feGaussianBlur stdDeviation="8.93452"/>
<feColorMatrix type="matrix" values="0 0 0 0 0.0156863 0 0 0 0 0.6 0 0 0 0 0.027451 0 0 0 0.143066 0"/>
<feBlend mode="normal" in2="effect3_dropShadow_37_60" result="effect4_dropShadow_37_60"/>
<feColorMatrix in="SourceAlpha" type="matrix" values="0 0 0 0 0 0 0 0 0 0 0 0 0 0 0 0 0 0 127 0" result="hardAlpha"/>
<feOffset dy="41.7776"/>
<feGaussianBlur stdDeviation="16.711"/>
<feColorMatrix type="matrix" values="0 0 0 0 0.0156863 0 0 0 0 0.6 0 0 0 0 0.027451 0 0 0 0.172525 0"/>
<feBlend mode="normal" in2="effect4_dropShadow_37_60" result="effect5_dropShadow_37_60"/>
<feColorMatrix in="SourceAlpha" type="matrix" values="0 0 0 0 0 0 0 0 0 0 0 0 0 0 0 0 0 0 127 0" result="hardAlpha"/>
<feOffset dy="100"/>
<feGaussianBlur stdDeviation="40"/>
<feColorMatrix type="matrix" values="0 0 0 0 0.0156863 0 0 0 0 0.6 0 0 0 0 0.027451 0 0 0 0.24 0"/>
<feBlend mode="normal" in2="effect5_dropShadow_37_60" result="effect6_dropShadow_37_60"/>
<feBlend mode="normal" in="SourceGraphic" in2="effect6_dropShadow_37_60" result="shape"/>
</filter>
<filter id="filter7_dddddd_37_60" x="351.479" y="359" width="166.028" height="226" filterUnits="userSpaceOnUse" color-interpolation-filters="sRGB">
<feFlood flood-opacity="0" result="BackgroundImageFix"/>
<feColorMatrix in="SourceAlpha" type="matrix" values="0 0 0 0 0 0 0 0 0 0 0 0 0 0 0 0 0 0 127 0" result="hardAlpha"/>
<feOffset dy="2.76726"/>
<feGaussianBlur stdDeviation="1.1069"/>
<feColorMatrix type="matrix" values="0 0 0 0 0.0156863 0 0 0 0 0.6 0 0 0 0 0.027451 0 0 0 0.0674749 0"/>
<feBlend mode="normal" in2="BackgroundImageFix" result="effect1_dropShadow_37_60"/>
<feColorMatrix in="SourceAlpha" type="matrix" values="0 0 0 0 0 0 0 0 0 0 0 0 0 0 0 0 0 0 127 0" result="hardAlpha"/>
<feOffset dy="6.6501"/>
<feGaussianBlur stdDeviation="2.66004"/>
<feColorMatrix type="matrix" values="0 0 0 0 0.0156863 0 0 0 0 0.6 0 0 0 0 0.027451 0 0 0 0.0969343 0"/>
<feBlend mode="normal" in2="effect1_dropShadow_37_60" result="effect2_dropShadow_37_60"/>
<feColorMatrix in="SourceAlpha" type="matrix" values="0 0 0 0 0 0 0 0 0 0 0 0 0 0 0 0 0 0 127 0" result="hardAlpha"/>
<feOffset dy="12.5216"/>
<feGaussianBlur stdDeviation="5.00862"/>
<feColorMatrix type="matrix" values="0 0 0 0 0.0156863 0 0 0 0 0.6 0 0 0 0 0.027451 0 0 0 0.12 0"/>
<feBlend mode="normal" in2="effect2_dropShadow_37_60" result="effect3_dropShadow_37_60"/>
<feColorMatrix in="SourceAlpha" type="matrix" values="0 0 0 0 0 0 0 0 0 0 0 0 0 0 0 0 0 0 127 0" result="hardAlpha"/>
<feOffset dy="22.3363"/>
<feGaussianBlur stdDeviation="8.93452"/>
<feColorMatrix type="matrix" values="0 0 0 0 0.0156863 0 0 0 0 0.6 0 0 0 0 0.027451 0 0 0 0.143066 0"/>
<feBlend mode="normal" in2="effect3_dropShadow_37_60" result="effect4_dropShadow_37_60"/>
<feColorMatrix in="SourceAlpha" type="matrix" values="0 0 0 0 0 0 0 0 0 0 0 0 0 0 0 0 0 0 127 0" result="hardAlpha"/>
<feOffset dy="41.7776"/>
<feGaussianBlur stdDeviation="16.711"/>
<feColorMatrix type="matrix" values="0 0 0 0 0.0156863 0 0 0 0 0.6 0 0 0 0 0.027451 0 0 0 0.172525 0"/>
<feBlend mode="normal" in2="effect4_dropShadow_37_60" result="effect5_dropShadow_37_60"/>
<feColorMatrix in="SourceAlpha" type="matrix" values="0 0 0 0 0 0 0 0 0 0 0 0 0 0 0 0 0 0 127 0" result="hardAlpha"/>
<feOffset dy="100"/>
<feGaussianBlur stdDeviation="40"/>
<feColorMatrix type="matrix" values="0 0 0 0 0.0156863 0 0 0 0 0.6 0 0 0 0 0.027451 0 0 0 0.24 0"/>
<feBlend mode="normal" in2="effect5_dropShadow_37_60" result="effect6_dropShadow_37_60"/>
<feBlend mode="normal" in="SourceGraphic" in2="effect6_dropShadow_37_60" result="shape"/>
</filter>
<filter id="filter8_dddddd_37_60" x="368.559" y="374" width="166.028" height="211" filterUnits="userSpaceOnUse" color-interpolation-filters="sRGB">
<feFlood flood-opacity="0" result="BackgroundImageFix"/>
<feColorMatrix in="SourceAlpha" type="matrix" values="0 0 0 0 0 0 0 0 0 0 0 0 0 0 0 0 0 0 127 0" result="hardAlpha"/>
<feOffset dy="2.76726"/>
<feGaussianBlur stdDeviation="1.1069"/>
<feColorMatrix type="matrix" values="0 0 0 0 0.0156863 0 0 0 0 0.6 0 0 0 0 0.027451 0 0 0 0.0674749 0"/>
<feBlend mode="normal" in2="BackgroundImageFix" result="effect1_dropShadow_37_60"/>
<feColorMatrix in="SourceAlpha" type="matrix" values="0 0 0 0 0 0 0 0 0 0 0 0 0 0 0 0 0 0 127 0" result="hardAlpha"/>
<feOffset dy="6.6501"/>
<feGaussianBlur stdDeviation="2.66004"/>
<feColorMatrix type="matrix" values="0 0 0 0 0.0156863 0 0 0 0 0.6 0 0 0 0 0.027451 0 0 0 0.0969343 0"/>
<feBlend mode="normal" in2="effect1_dropShadow_37_60" result="effect2_dropShadow_37_60"/>
<feColorMatrix in="SourceAlpha" type="matrix" values="0 0 0 0 0 0 0 0 0 0 0 0 0 0 0 0 0 0 127 0" result="hardAlpha"/>
<feOffset dy="12.5216"/>
<feGaussianBlur stdDeviation="5.00862"/>
<feColorMatrix type="matrix" values="0 0 0 0 0.0156863 0 0 0 0 0.6 0 0 0 0 0.027451 0 0 0 0.12 0"/>
<feBlend mode="normal" in2="effect2_dropShadow_37_60" result="effect3_dropShadow_37_60"/>
<feColorMatrix in="SourceAlpha" type="matrix" values="0 0 0 0 0 0 0 0 0 0 0 0 0 0 0 0 0 0 127 0" result="hardAlpha"/>
<feOffset dy="22.3363"/>
<feGaussianBlur stdDeviation="8.93452"/>
<feColorMatrix type="matrix" values="0 0 0 0 0.0156863 0 0 0 0 0.6 0 0 0 0 0.027451 0 0 0 0.143066 0"/>
<feBlend mode="normal" in2="effect3_dropShadow_37_60" result="effect4_dropShadow_37_60"/>
<feColorMatrix in="SourceAlpha" type="matrix" values="0 0 0 0 0 0 0 0 0 0 0 0 0 0 0 0 0 0 127 0" result="hardAlpha"/>
<feOffset dy="41.7776"/>
<feGaussianBlur stdDeviation="16.711"/>
<feColorMatrix type="matrix" values="0 0 0 0 0.0156863 0 0 0 0 0.6 0 0 0 0 0.027451 0 0 0 0.172525 0"/>
<feBlend mode="normal" in2="effect4_dropShadow_37_60" result="effect5_dropShadow_37_60"/>
<feColorMatrix in="SourceAlpha" type="matrix" values="0 0 0 0 0 0 0 0 0 0 0 0 0 0 0 0 0 0 127 0" result="hardAlpha"/>
<feOffset dy="100"/>
<feGaussianBlur stdDeviation="40"/>
<feColorMatrix type="matrix" values="0 0 0 0 0.0156863 0 0 0 0 0.6 0 0 0 0 0.027451 0 0 0 0.24 0"/>
<feBlend mode="normal" in2="effect5_dropShadow_37_60" result="effect6_dropShadow_37_60"/>
<feBlend mode="normal" in="SourceGraphic" in2="effect6_dropShadow_37_60" result="shape"/>
</filter>
<filter id="filter9_dddddd_37_60" x="385.639" y="374" width="166.028" height="211" filterUnits="userSpaceOnUse" color-interpolation-filters="sRGB">
<feFlood flood-opacity="0" result="BackgroundImageFix"/>
<feColorMatrix in="SourceAlpha" type="matrix" values="0 0 0 0 0 0 0 0 0 0 0 0 0 0 0 0 0 0 127 0" result="hardAlpha"/>
<feOffset dy="2.76726"/>
<feGaussianBlur stdDeviation="1.1069"/>
<feColorMatrix type="matrix" values="0 0 0 0 0.0156863 0 0 0 0 0.6 0 0 0 0 0.027451 0 0 0 0.0674749 0"/>
<feBlend mode="normal" in2="BackgroundImageFix" result="effect1_dropShadow_37_60"/>
<feColorMatrix in="SourceAlpha" type="matrix" values="0 0 0 0 0 0 0 0 0 0 0 0 0 0 0 0 0 0 127 0" result="hardAlpha"/>
<feOffset dy="6.6501"/>
<feGaussianBlur stdDeviation="2.66004"/>
<feColorMatrix type="matrix" values="0 0 0 0 0.0156863 0 0 0 0 0.6 0 0 0 0 0.027451 0 0 0 0.0969343 0"/>
<feBlend mode="normal" in2="effect1_dropShadow_37_60" result="effect2_dropShadow_37_60"/>
<feColorMatrix in="SourceAlpha" type="matrix" values="0 0 0 0 0 0 0 0 0 0 0 0 0 0 0 0 0 0 127 0" result="hardAlpha"/>
<feOffset dy="12.5216"/>
<feGaussianBlur stdDeviation="5.00862"/>
<feColorMatrix type="matrix" values="0 0 0 0 0.0156863 0 0 0 0 0.6 0 0 0 0 0.027451 0 0 0 0.12 0"/>
<feBlend mode="normal" in2="effect2_dropShadow_37_60" result="effect3_dropShadow_37_60"/>
<feColorMatrix in="SourceAlpha" type="matrix" values="0 0 0 0 0 0 0 0 0 0 0 0 0 0 0 0 0 0 127 0" result="hardAlpha"/>
<feOffset dy="22.3363"/>
<feGaussianBlur stdDeviation="8.93452"/>
<feColorMatrix type="matrix" values="0 0 0 0 0.0156863 0 0 0 0 0.6 0 0 0 0 0.027451 0 0 0 0.143066 0"/>
<feBlend mode="normal" in2="effect3_dropShadow_37_60" result="effect4_dropShadow_37_60"/>
<feColorMatrix in="SourceAlpha" type="matrix" values="0 0 0 0 0 0 0 0 0 0 0 0 0 0 0 0 0 0 127 0" result="hardAlpha"/>
<feOffset dy="41.7776"/>
<feGaussianBlur stdDeviation="16.711"/>
<feColorMatrix type="matrix" values="0 0 0 0 0.0156863 0 0 0 0 0.6 0 0 0 0 0.027451 0 0 0 0.172525 0"/>
<feBlend mode="normal" in2="effect4_dropShadow_37_60" result="effect5_dropShadow_37_60"/>
<feColorMatrix in="SourceAlpha" type="matrix" values="0 0 0 0 0 0 0 0 0 0 0 0 0 0 0 0 0 0 127 0" result="hardAlpha"/>
<feOffset dy="100"/>
<feGaussianBlur stdDeviation="40"/>
<feColorMatrix type="matrix" values="0 0 0 0 0.0156863 0 0 0 0 0.6 0 0 0 0 0.027451 0 0 0 0.24 0"/>
<feBlend mode="normal" in2="effect5_dropShadow_37_60" result="effect6_dropShadow_37_60"/>
<feBlend mode="normal" in="SourceGraphic" in2="effect6_dropShadow_37_60" result="shape"/>
</filter>
</defs>
</svg>
